<svg width="128" height="128" viewBox="0 0 128 128" fill="none" xmlns="http://www.w3.org/2000/svg">
<rect x="12" y="16" width="104" height="100" rx="8" fill="url(#paint0_linear)"/>
<rect x="12" y="12" width="104" height="100" rx="8" fill="#3D3846"/>
<g filter="url(#filter0_d)">
<path d="M64 26H77C84.1797 26 90 31.8203 90 39C90 46.1797 84.1797 52 77 52H64V26Z" fill="#FC7266"/>
<path d="M38 39C38 31.8203 43.8203 26 51 26H64V52H51C43.8203 52 38 46.1797 38 39Z" fill="#EF502F"/>
<path d="M38 65C38 57.8203 43.8203 52 51 52H64V78H51C43.8203 78 38 72.1797 38 65Z" fill="#A15BFC"/>
<path d="M38 91C38 83.8203 43.8203 78 51 78H64V91C64 98.1797 58.1797 104 51 104C43.8203 104 38 98.1797 38 91Z" fill="#27CD84"/>
<mask id="mask0" mask-type="alpha" maskUnits="userSpaceOnUse" x="64" y="52" width="26" height="26">
<circle cx="77" cy="65" r="13" fill="white"/>
</mask>
<g mask="url(#mask0)">
<circle cx="77" cy="65" r="13" fill="#34BBFB"/>
<path d="M104.571 101.743C104.57 101.743 104.569 101.742 104.569 101.741C104.119 101.232 103.904 100.29 103.673 99.2851C103.443 98.2813 103.185 97.1988 102.361 96.4972C102.36 96.4957 102.357 96.4943 102.356 96.4927C102.193 96.3502 102.025 96.23 101.856 96.1297C101.687 96.0294 101.516 95.9478 101.344 95.8832C102.49 92.4858 102.041 89.1026 100.884 86.046C99.4651 82.2937 96.9876 79.0249 95.0951 76.7887C92.977 74.1167 90.9055 71.5805 90.9464 67.8342C91.0095 62.1168 91.5752 51.5141 81.5138 51.5C81.1047 51.4993 80.6778 51.5164 80.2331 51.552C68.9897 52.457 71.9721 64.3359 71.805 68.3131C71.5994 71.2219 71.0099 73.5146 69.009 76.3581C66.6592 79.1526 63.3495 83.6762 61.7822 88.3855C61.0428 90.6075 60.6908 92.8726 61.0153 95.0168C60.9136 95.1081 60.8171 95.2039 60.7243 95.3019C60.0345 96.0392 59.5245 96.9315 58.9565 97.5321C58.4257 98.0623 57.6699 98.2635 56.8384 98.5611C56.0069 98.8597 55.0944 99.2991 54.5405 100.362C54.5405 100.362 54.5405 100.363 54.5398 100.363C54.5391 100.365 54.5383 100.367 54.5368 100.368C54.2762 100.854 54.1916 101.379 54.1916 101.912C54.1916 102.404 54.2644 102.903 54.3379 103.383C54.4908 104.383 54.646 105.328 54.4403 105.968C53.7825 107.767 53.6979 109.01 54.1612 109.913C54.6259 110.817 55.58 111.216 56.6587 111.442C58.8162 111.892 61.7377 111.78 64.0399 113.001L64.2382 112.627L64.0422 113.001C66.507 114.29 69.0061 114.748 70.9995 114.293C72.4457 113.963 73.6188 113.102 74.2216 111.777C75.7807 111.77 77.492 111.109 80.2331 110.958C82.0929 110.808 84.416 111.619 87.088 111.471C87.1577 111.76 87.2588 112.039 87.3968 112.304C87.3984 112.306 87.3998 112.309 87.4013 112.312C88.437 114.383 90.3613 115.33 92.4127 115.169C94.4662 115.007 96.6497 113.796 98.4153 111.696L98.0916 111.424L98.4176 111.693C100.1 109.652 102.892 108.807 104.745 107.69C105.67 107.132 106.421 106.433 106.48 105.417C106.537 104.402 105.941 103.264 104.571 101.743Z" fill="#1891CA"/>
<path d="M85.9253 68.7014C85.73 68.319 85.3314 67.9552 84.6528 67.6768L84.6513 67.6761L84.6491 67.6753C83.2377 67.071 82.6252 67.0279 81.8375 66.5157C80.5553 65.6916 79.4959 65.4028 78.6153 65.4065C78.1543 65.408 77.7422 65.4896 77.3732 65.6173C76.3004 65.9863 75.5884 66.7562 75.1422 67.1786L75.1415 67.1794C75.1415 67.1801 75.1408 67.1801 75.1408 67.1809C75.0532 67.264 74.9403 67.3398 74.6671 67.5402C74.3916 67.7414 73.9789 68.0443 73.3849 68.4898C72.857 68.8855 72.6855 69.4007 72.8682 70.0043C73.0501 70.6079 73.6321 71.3043 74.6968 71.9064L74.6983 71.9079L74.7005 71.9087C75.3613 72.297 75.8127 72.8204 76.3309 73.2369C76.59 73.4448 76.8625 73.6304 77.1906 73.7707C77.5188 73.911 77.9019 74.006 78.3815 74.0343C79.507 74.0996 80.3355 73.7618 81.0668 73.343C81.7996 72.9251 82.4202 72.4135 83.1323 72.1826L83.1338 72.1819L83.1353 72.1811C84.5949 71.7253 85.6358 70.8069 85.9617 69.9346C86.125 69.498 86.1198 69.0837 85.9253 68.7014Z" fill="#34BBFB"/>
<path d="M82.2221 70.8559C81.0608 71.4612 79.7045 72.1953 78.2612 72.1953C76.8187 72.1953 75.679 71.5286 74.8594 70.8789C74.4496 70.5545 74.117 70.2315 73.866 69.9969C73.4306 69.6533 73.4828 69.1712 73.6617 69.1855C73.9615 69.2229 74.0068 69.6177 74.1956 69.7942C74.451 70.0333 74.771 70.3429 75.1586 70.6503C75.9337 71.2643 76.9671 71.8619 78.2612 71.8619C79.553 71.8619 81.061 71.1035 81.9815 70.5872C82.503 70.2946 83.1666 69.7703 83.7082 69.3727C84.1225 69.0686 84.1074 68.7024 84.4495 68.7423C84.7916 68.7821 84.5385 69.1476 84.0594 69.5657C83.5803 69.9838 82.8308 70.5386 82.2221 70.8559Z" fill="#1891CA"/>
<path d="M100.003 95.6353C99.8422 95.6294 99.6833 95.6302 99.5289 95.6338C99.5148 95.6346 99.5007 95.6346 99.4858 95.6346C99.8845 94.3754 99.0025 93.4466 96.6519 92.3834C94.2145 91.3115 92.2724 91.4175 91.9442 93.5929C91.9234 93.7065 91.9063 93.823 91.8937 93.9403C91.7111 94.0042 91.5284 94.0844 91.3443 94.1846C90.2002 94.8112 89.5751 95.9471 89.2276 97.3415C88.8809 98.7343 88.7807 100.417 88.6857 102.31C88.6857 102.311 88.6857 102.311 88.6857 102.311C88.627 103.262 88.235 104.55 87.8386 105.913C83.8458 108.762 78.3043 109.995 73.5987 106.784C73.2802 106.28 72.9142 105.78 72.5378 105.287C72.2973 104.972 72.05 104.66 71.805 104.351C72.2876 104.352 72.6982 104.272 73.03 104.122C73.4428 103.934 73.7324 103.634 73.8764 103.248C74.163 102.477 73.8749 101.388 72.9565 100.145C72.0381 98.9021 70.4828 97.4996 68.1976 96.0979C68.1976 96.0979 68.1976 96.0979 68.1976 96.0972C66.5182 95.0526 65.5797 93.7725 65.1402 92.3828C64.7 90.9922 64.7616 89.4888 65.1009 88.0047C65.7512 85.156 67.4217 82.3852 68.4878 80.6464C68.7744 80.4356 68.5903 81.0384 67.4084 83.2331C66.3496 85.2392 64.3696 89.8689 67.0802 93.4831C67.153 90.9113 67.7669 88.2883 68.7982 85.8345C70.3001 82.4305 73.4413 76.526 73.6908 71.8204C73.82 71.914 74.2617 72.2124 74.4585 72.3245C74.4592 72.3253 74.4592 72.3253 74.46 72.3253C75.0361 72.6646 75.4689 73.1605 76.0295 73.6112C76.5915 74.0626 77.2931 74.4523 78.3533 74.514C78.455 74.5199 78.5545 74.5229 78.6517 74.5229C79.7446 74.5229 80.5969 74.1665 81.3067 73.7604C82.0781 73.3194 82.6943 72.8309 83.2786 72.6408C83.2794 72.6401 83.2801 72.6401 83.2808 72.6401C84.5155 72.254 85.4963 71.571 86.0545 70.7751C87.0137 74.5555 89.244 80.0161 90.6777 82.6807C91.4402 84.0943 92.9561 87.0982 93.611 90.7175C94.026 90.7048 94.4834 90.765 94.9726 90.8904C96.6854 86.4499 93.5204 81.6679 92.0727 80.336C91.4884 79.7688 91.4602 79.5149 91.7505 79.5268C93.32 80.9159 95.3816 83.7081 96.1316 86.8605C96.4738 88.2978 96.5466 89.8094 96.1798 91.301C96.3587 91.3752 96.5413 91.4562 96.7262 91.5438C99.4754 92.8824 100.492 94.0465 100.003 95.6353Z" fill="#34BBFB"/>
<path d="M86.0545 64.3463C86.0604 65.0954 85.9312 65.7332 85.6469 66.3843C85.485 66.7555 85.2988 67.0673 85.0753 67.3376C84.9995 67.3012 84.9209 67.2663 84.8391 67.2329C84.5563 67.1119 84.3061 67.0124 84.0819 66.9277C83.8576 66.8431 83.6827 66.7853 83.5022 66.7229C83.6329 66.5648 83.8905 66.3784 83.9863 66.1446C84.1318 65.7919 84.2031 65.4474 84.2165 65.0368C84.2165 65.0205 84.2217 65.0064 84.2217 64.9871C84.2298 64.5936 84.1779 64.2573 84.0628 63.9128C83.9425 63.5512 83.7895 63.2914 83.5683 63.0753C83.3463 62.8593 83.1251 62.7613 82.8593 62.7524C82.8467 62.7516 82.8348 62.7516 82.8222 62.7516C82.5727 62.7524 82.3559 62.8385 82.1316 63.0256C81.8963 63.2223 81.7218 63.474 81.5764 63.8245C81.4316 64.1749 81.3603 64.5223 81.3462 64.9351C81.344 64.9515 81.344 64.9656 81.344 64.9819C81.3388 65.2091 81.3537 65.417 81.3885 65.6189C80.8778 65.3643 80.2243 65.1786 79.7729 65.0709C79.7469 64.8757 79.732 64.6745 79.7276 64.4636V64.4064C79.7194 63.6596 79.8419 63.0188 80.1292 62.3685C80.4165 61.7174 80.7722 61.2496 81.2725 60.8688C81.7736 60.4886 82.2659 60.3142 82.8487 60.3082H82.8761C83.4463 60.3082 83.9341 60.476 84.4353 60.8391C84.9438 61.2088 85.3106 61.6706 85.6061 62.3165C85.8956 62.9461 86.0352 63.5616 86.0494 64.2914C86.0493 64.3107 86.0493 64.327 86.0545 64.3463Z" fill="#34BBFB"/>
<path d="M77.4364 65.0924C77.3614 65.1139 77.2886 65.1369 77.2166 65.1614C76.8083 65.3025 76.4841 65.4582 76.1708 65.6653C76.2012 65.4485 76.2056 65.2288 76.1819 64.983C76.1797 64.9697 76.1797 64.9585 76.1797 64.9452C76.147 64.6192 76.0779 64.346 75.9629 64.0698C75.8404 63.7825 75.703 63.5798 75.5226 63.4239C75.3593 63.2829 75.2048 63.2175 75.0341 63.219C75.017 63.219 74.9992 63.2198 74.9814 63.2212C74.7898 63.2376 74.6309 63.3311 74.4802 63.5145C74.3303 63.6971 74.2315 63.9243 74.1602 64.2258C74.089 64.5264 74.0704 64.8219 74.1001 65.1612C74.1001 65.1746 74.1031 65.1857 74.1031 65.1991C74.1357 65.528 74.2018 65.8012 74.3191 66.0774C74.4394 66.3617 74.579 66.5644 74.7594 66.7203C74.7898 66.7463 74.8195 66.7701 74.8492 66.7909C74.6621 66.9356 74.5364 67.0383 74.382 67.1512C74.2833 67.2232 74.166 67.3093 74.0293 67.4103C73.7316 67.1311 73.4993 66.7807 73.2958 66.3182C73.0553 65.7717 72.9268 65.2246 72.8882 64.5786V64.5734C72.8526 63.9275 72.9157 63.3722 73.0931 62.7976C73.2713 62.2229 73.5089 61.8071 73.8541 61.4656C74.1986 61.1234 74.5461 60.9511 74.9648 60.9296C74.9975 60.9281 75.0294 60.9274 75.0613 60.9274C75.4407 60.9281 75.7793 61.0543 76.1297 61.3342C76.5098 61.6379 76.7971 62.0262 77.0377 62.5733C77.279 63.1205 77.4074 63.6677 77.443 64.3136V64.3188C77.4601 64.5898 77.4579 64.8452 77.4364 65.0924Z" fill="#34BBFB"/>
<path d="M79.3412 66.6374C79.3892 66.7916 79.6376 66.766 79.7812 66.84C79.9071 66.9048 80.0084 67.047 80.15 67.0511C80.2852 67.055 80.4955 67.0043 80.5131 66.8702C80.5363 66.6931 80.2777 66.5806 80.1113 66.5157C79.8971 66.4322 79.6227 66.3898 79.4218 66.5015C79.3758 66.5271 79.3255 66.5871 79.3412 66.6374V66.6374Z" fill="#1891CA"/>
<path d="M77.8738 66.6374C77.8258 66.7916 77.5774 66.766 77.4338 66.84C77.3079 66.9048 77.2066 67.047 77.065 67.0511C76.9298 67.055 76.7195 67.0043 76.7019 66.8702C76.6787 66.6931 76.9373 66.5806 77.1037 66.5157C77.3179 66.4322 77.5923 66.3898 77.7932 66.5015C77.8392 66.5271 77.8895 66.5871 77.8738 66.6374V66.6374Z" fill="#1891CA"/>
</g>
</g>
<defs>
<filter id="filter0_d" x="38" y="24" width="52" height="80" filterUnits="userSpaceOnUse" color-interpolation-filters="sRGB">
<feFlood flood-opacity="0" result="BackgroundImageFix"/>
<feColorMatrix in="SourceAlpha" type="matrix" values="0 0 0 0 0 0 0 0 0 0 0 0 0 0 0 0 0 0 127 0"/>
<feOffset dy="-2"/>
<feColorMatrix type="matrix" values="0 0 0 0 0 0 0 0 0 0 0 0 0 0 0 0 0 0 0.14 0"/>
<feBlend mode="normal" in2="BackgroundImageFix" result="effect1_dropShadow"/>
<feBlend mode="normal" in="SourceGraphic" in2="effect1_dropShadow" result="shape"/>
</filter>
<linearGradient id="paint0_linear" x1="12" y1="116" x2="116" y2="116" gradientUnits="userSpaceOnUse">
<stop stop-color="#241F31"/>
<stop offset="0.0384006" stop-color="#615A6C"/>
<stop offset="0.07751" stop-color="#241F31"/>
<stop offset="0.923489" stop-color="#241F31"/>
<stop offset="0.961496" stop-color="#615A6C"/>
<stop offset="1" stop-color="#241F31"/>
</linearGradient>
</defs>
</svg>
