<svg width="6929" height="6932" viewBox="0 0 6929 6932" fill="none" xmlns="http://www.w3.org/2000/svg">
<g filter="url(#filter0_dddd)">
<rect x="8" y="1" width="6913" height="6913" rx="500" fill="url(#paint0_linear)"/>
</g>
<path d="M2660.41 5732.09C3107.61 5732.09 3470.56 5368.18 3470.56 4919.79V4107.49H2660.41C2213.2 4107.49 1850.25 4471.4 1850.25 4919.79C1850.25 5368.18 2213.2 5732.09 2660.41 5732.09Z" fill="#0ACF83"/>
<path d="M1850.25 3295.19C1850.25 2846.8 2213.2 2482.88 2660.41 2482.88H3470.56V4107.49H2660.41C2213.2 4107.49 1850.25 3743.58 1850.25 3295.19Z" fill="#A259FF"/>
<path d="M1850.25 1670.58C1850.25 1222.2 2213.2 858.285 2660.41 858.285H3470.56V2482.88H2660.41C2213.2 2482.88 1850.25 2118.97 1850.25 1670.58Z" fill="#F24E1E"/>
<path d="M3470.57 858.285H4280.72C4727.93 858.285 5090.88 1222.2 5090.88 1670.58C5090.88 2118.97 4727.93 2482.88 4280.72 2482.88H3470.57V858.285Z" fill="#FF7262"/>
<path d="M5090.88 3295.19C5090.88 3743.58 4727.93 4107.49 4280.72 4107.49C3833.52 4107.49 3470.57 3743.58 3470.57 3295.19C3470.57 2846.8 3833.52 2482.88 4280.72 2482.88C4727.93 2482.88 5090.88 2846.8 5090.88 3295.19Z" fill="#1ABCFE"/>
<path d="M4004.22 3644.48C3955.51 3574.38 3946.09 3345.97 4059.6 3205.38C4115.77 3138.04 4130.3 3091.18 4134.62 3027.77C4137.76 2955.7 4083.95 2741.07 4286.62 2724.93C4492.05 2708.39 4480.66 2911.59 4479.48 3019.11C4478.69 3109.68 4545.86 3161.27 4592.2 3232.16C4677.44 3362.12 4670.37 3585.8 4576.1 3707.1C4456.7 3858.72 4354.58 3792.95 4286.62 3798.47C4159.37 3805.95 4155.05 3873.69 4004.22 3644.48Z" fill="white"/>
<path d="M4499.9 3245.55C4535.25 3278.24 4626.77 3424.34 4481.83 3515.71C4430.78 3547.61 4527.4 3668.9 4573.74 3610.22C4655.83 3504.68 4603.6 3336.13 4554.1 3275.87C4521.11 3233.34 4470.05 3216.8 4499.9 3245.55L4499.9 3245.55Z" fill="white"/>
<path d="M4490.08 3225.86C4548.21 3273.12 4653.86 3438.52 4499.51 3546.42C4448.84 3579.9 4544.28 3685.84 4598.09 3631.88C4784.66 3443.64 4593.38 3227.43 4527.39 3153C4468.47 3088.02 4416.24 3167.97 4490.08 3225.86Z" fill="white"/>
<path fill-rule="evenodd" clip-rule="evenodd" d="M4486.38 3127.88C4498.74 3128.64 4513.27 3136.01 4528.09 3152.36L4528.1 3152.37L4528.1 3152.37C4561.09 3189.57 4625.52 3262.35 4658.34 3349.42C4674.75 3392.97 4683.28 3440.14 4675.97 3488.25C4668.67 3536.37 4645.54 3585.36 4598.77 3632.55L4598.77 3632.55C4585.07 3646.29 4568.69 3649.85 4552.69 3646.93C4536.74 3644.02 4521.18 3634.68 4508.96 3622.62C4496.73 3610.56 4487.75 3595.7 4485.04 3581.67C4482.32 3567.58 4485.93 3554.26 4498.98 3545.63C4537.42 3518.76 4559.61 3488.35 4570.43 3457.14C4581.25 3425.93 4580.71 3393.86 4573.55 3363.62C4559.22 3303.11 4518.41 3250.12 4489.49 3226.6C4452.36 3197.49 4446.61 3162.54 4458.13 3142.87C4463.9 3133.02 4473.98 3127.12 4486.38 3127.88ZM4459.77 3143.84C4448.91 3162.37 4453.96 3196.33 4490.67 3225.11L4490.68 3225.12L4490.68 3225.12C4519.88 3248.86 4560.96 3302.2 4575.4 3363.18C4582.63 3393.69 4583.19 3426.14 4572.23 3457.77C4561.26 3489.4 4538.78 3520.13 4500.05 3547.2L4500.03 3547.22L4500.03 3547.22C4487.75 3555.33 4484.29 3567.8 4486.9 3581.3C4489.52 3594.86 4498.26 3609.39 4510.29 3621.26C4522.32 3633.12 4537.54 3642.24 4553.03 3645.06C4568.48 3647.88 4584.21 3644.45 4597.42 3631.21C4643.93 3584.28 4666.86 3535.65 4674.1 3487.96C4681.34 3440.26 4672.9 3393.43 4656.56 3350.1C4623.89 3263.4 4559.69 3190.86 4526.69 3153.64C4512.06 3137.51 4497.96 3130.5 4486.26 3129.78C4474.61 3129.07 4465.19 3134.58 4459.77 3143.84Z" fill="white"/>
<path d="M4406.42 2827.71C4404.45 2881.66 4345.14 2928.53 4274.05 2932.86C4202.96 2937.2 4147.19 2896.24 4149.15 2842.28C4151.11 2788.33 4210.42 2741.46 4281.52 2737.13C4352.6 2733.2 4408.38 2773.76 4406.42 2827.71Z" fill="white"/>
<path d="M4236.35 2956.1C4238.31 2991.15 4221.82 3020.68 4199.03 3021.86C4176.25 3023.04 4156.22 2995.87 4154.26 2960.82C4152.29 2925.77 4168.79 2896.24 4191.57 2895.06C4214.35 2893.87 4234.39 2921.04 4236.35 2956.1Z" fill="#1ABCFE"/>
<path d="M4277.59 2958.85C4278.37 2999.41 4304.69 3031.71 4336.11 3030.92C4367.53 3030.13 4392.28 2996.66 4391.5 2955.7C4390.71 2915.14 4364.39 2882.85 4332.97 2883.63C4301.55 2884.42 4276.41 2918.29 4277.59 2958.85Z" fill="#1ABCFE"/>
<path d="M4303.52 2967.91C4303.12 2990.36 4314.12 3008.47 4328.65 3008.47C4342.79 3008.47 4354.97 2990.36 4355.36 2968.31C4355.75 2945.86 4344.76 2927.74 4330.22 2927.74C4315.69 2927.74 4303.91 2945.86 4303.52 2967.91Z" fill="white"/>
<path d="M4212.79 2968.3C4214.75 2986.81 4207.68 3002.57 4197.47 3004.14C4187.26 3005.32 4177.44 2991.54 4175.47 2973.03C4173.5 2954.52 4180.58 2938.76 4190.79 2937.19C4201 2936.01 4210.82 2949.79 4212.79 2968.3Z" fill="white"/>
<path d="M4309.41 2955.31C4308.23 2967.91 4314.12 2978.15 4322.37 2978.94C4330.62 2979.72 4338.47 2969.88 4339.65 2957.67C4340.83 2945.07 4334.94 2934.83 4326.69 2934.04C4318.44 2933.25 4310.59 2943.1 4309.41 2955.31V2955.31Z" fill="#1ABCFE"/>
<path d="M4204.14 2958.46C4205.32 2968.7 4201 2977.76 4194.72 2978.54C4188.43 2979.33 4182.54 2971.45 4181.36 2960.82C4180.19 2950.58 4184.51 2941.52 4190.79 2940.74C4197.08 2939.95 4202.97 2948.22 4204.14 2958.46Z" fill="#1ABCFE"/>
<path d="M4080.41 3345.18C4108.3 3281.78 4167.61 3170.33 4168.79 3084.08C4168.79 3015.56 4373.43 2999.02 4389.92 3067.55C4406.42 3136.07 4448.05 3238.46 4474.76 3288.08C4501.47 3337.31 4578.85 3494.44 4496.36 3631.49C4422.13 3752.78 4197.07 3848.87 4076.88 3614.95C4036.03 3533.82 4043.49 3433.4 4080.41 3345.18Z" fill="#1ABCFE"/>
<path d="M4055.28 3297.93C4031.32 3343.21 3981.83 3462.15 4102.8 3527.13C4232.81 3596.44 4232.42 3738.61 4076.09 3670.87C3933.13 3609.83 3996.36 3362.51 4036.43 3303.44C4062.35 3262.09 4101.62 3211.29 4055.28 3297.93Z" fill="#1ABCFE"/>
<path d="M4075.7 3246.73C4037.6 3308.96 3946.48 3455.45 4068.64 3531.85C4232.81 3633.07 4186.47 3733.88 4036.43 3642.91C3825.11 3516.1 4010.89 3260.12 4095.34 3162.46C4191.97 3052.97 4113.8 3182.54 4075.7 3246.73V3246.73Z" fill="white"/>
<path fill-rule="evenodd" clip-rule="evenodd" d="M4124.65 3132.89C4117.65 3139.66 4108.32 3149.59 4096.26 3163.26C4054.06 3212.06 3986.63 3300.32 3956.13 3392.14C3940.88 3438.04 3934.88 3484.72 3945.79 3527.77C3956.68 3570.78 3984.47 3610.31 4037.05 3641.86L4037.06 3641.86C4074.48 3664.55 4105.32 3675.21 4127.94 3676.95C4150.6 3678.7 4164.59 3671.51 4169.22 3659.02C4173.91 3646.38 4169.32 3627.59 4152.99 3605.42C4136.71 3583.32 4108.96 3558.14 4068 3532.89L4067.99 3532.89C4037.23 3513.65 4019.82 3489.94 4011.69 3464.19C4003.56 3438.47 4004.72 3410.81 4010.89 3383.7C4023.01 3330.44 4054.55 3278.95 4073.69 3247.69C4073.99 3247.2 4074.28 3246.72 4074.58 3246.24L4074.66 3246.1C4076.01 3243.83 4077.41 3241.47 4078.86 3239.04C4097.76 3207.22 4123.61 3163.72 4134.94 3138.96C4138 3132.27 4139.93 3127.08 4140.44 3123.89C4140.56 3123.11 4140.59 3122.5 4140.54 3122.05C4140.5 3121.59 4140.39 3121.4 4140.34 3121.33L4140.34 3121.33C4140.32 3121.31 4140.28 3121.26 4140.1 3121.25C4139.87 3121.24 4139.47 3121.3 4138.84 3121.54C4137.59 3122.04 4135.82 3123.15 4133.43 3125.03C4131.06 3126.91 4128.15 3129.5 4124.65 3132.89ZM4076.92 3247.06C4078.22 3244.86 4079.58 3242.59 4080.97 3240.24C4099.85 3208.47 4125.76 3164.86 4137.15 3139.97C4140.2 3133.3 4142.28 3127.83 4142.84 3124.27C4142.98 3123.37 4143.03 3122.54 4142.96 3121.81C4142.89 3121.09 4142.69 3120.36 4142.22 3119.79C4141.14 3118.48 4139.45 3118.68 4137.95 3119.28C4136.36 3119.9 4134.36 3121.19 4131.92 3123.12C4129.46 3125.06 4126.49 3127.71 4122.96 3131.13C4115.89 3137.98 4106.52 3147.95 4094.43 3161.65L4094.42 3161.66C4052.17 3210.52 3984.49 3299.08 3953.82 3391.37C3938.48 3437.52 3932.37 3484.71 3943.43 3528.37C3954.5 3572.08 3982.73 3612.1 4035.8 3643.95C4073.4 3666.75 4104.61 3677.6 4127.75 3679.38C4150.85 3681.16 4166.31 3673.87 4171.5 3659.87C4176.63 3646.03 4171.41 3626.33 4154.94 3603.97C4138.42 3581.55 4110.4 3556.17 4069.27 3530.82C4038.96 3511.86 4021.95 3488.6 4014.01 3463.45C4006.05 3438.28 4007.15 3411.09 4013.26 3384.25C4025.29 3331.38 4056.65 3280.17 4075.82 3248.87C4076.13 3248.37 4076.43 3247.87 4076.74 3247.37L4076.92 3247.08V3247.06Z" fill="white"/>
<path d="M4445.7 3369.21C4445.7 3438.52 4379.32 3528.31 4265.41 3527.52C4147.98 3528.31 4098.09 3438.52 4098.09 3369.21C4098.09 3299.9 4175.86 3243.58 4271.7 3243.58C4367.93 3243.97 4445.7 3299.9 4445.7 3369.21Z" fill="white" fill-opacity="0.19"/>
<path d="M4383.64 3151.43C4382.46 3223.1 4335.72 3240.04 4276.81 3240.04C4217.89 3240.04 4175.08 3229.4 4169.97 3151.43C4169.97 3102.59 4217.89 3074.24 4276.81 3074.24C4335.72 3073.85 4383.64 3102.2 4383.64 3151.43H4383.64Z" fill="white" fill-opacity="0.19"/>
<path d="M4027.39 3261.7C4065.88 3203.02 4147.18 3112.83 4042.71 3274.3C3957.87 3407.41 4011.29 3492.87 4038.78 3516.49C4118.12 3587.38 4114.98 3635.03 4052.53 3597.62C3918.59 3517.68 3946.48 3382.99 4027.39 3261.7Z" fill="white"/>
<path d="M4584.74 3285.72C4551.35 3216.8 4445.3 3041.95 4589.84 3245.15C4721.43 3429.06 4629.12 3557.06 4612.62 3569.66C4596.13 3582.26 4540.75 3607.86 4556.85 3563.36C4573.35 3518.85 4655.05 3434.58 4584.74 3285.71L4584.74 3285.72Z" fill="white"/>
<path d="M3998.33 3829.18C3910.34 3782.32 3782.69 3838.24 3829.04 3711.43C3838.47 3682.68 3815.29 3639.36 3830.22 3611.4C3847.9 3577.14 3885.99 3584.62 3908.77 3561.78C3931.16 3538.15 3945.3 3497.2 3987.33 3503.5C4028.96 3509.8 4056.85 3560.99 4085.92 3624.01C4107.52 3668.9 4183.72 3732.3 4178.61 3782.71C4172.33 3859.9 4084.74 3874.47 3998.33 3829.18Z" fill="white"/>
<path fill-rule="evenodd" clip-rule="evenodd" d="M3929.42 3545.52C3924.36 3552.48 3919.07 3559.76 3913.18 3565.98L3913.12 3566.04L3913.07 3566.09C3902.37 3576.82 3888.48 3581.57 3876.12 3585.79C3873.9 3586.55 3871.73 3587.29 3869.64 3588.04C3855.46 3593.17 3843.37 3599.18 3835.61 3614.2L3835.59 3614.24L3835.57 3614.28C3829.22 3626.18 3830.76 3641.9 3833.57 3660.2C3833.79 3661.61 3834.01 3663.04 3834.24 3664.48C3835.41 3671.98 3836.63 3679.74 3837.16 3687.17C3837.8 3696.06 3837.52 3705.06 3834.81 3713.34L3834.78 3713.43L3834.74 3713.53C3823.27 3744.92 3823.38 3763.04 3828.97 3773.96C3834.45 3784.65 3846.3 3790.53 3864.54 3794.32C3873.52 3796.19 3883.61 3797.48 3894.56 3798.72C3897 3798.99 3899.5 3799.27 3902.02 3799.55C3910.72 3800.51 3919.85 3801.51 3929.08 3802.81C3952.93 3806.18 3978.23 3811.59 4001.16 3823.8C4043.52 3845.99 4085.52 3853.15 4117.17 3845.94C4132.93 3842.35 4145.98 3835.24 4155.45 3824.81C4164.88 3814.41 4171.08 3800.34 4172.56 3782.22L4172.56 3782.16L4172.57 3782.1C4173.68 3771.11 4170.39 3758.9 4163.87 3745.66C4157.37 3732.46 4147.93 3718.78 4137.45 3704.99C4131.48 3697.14 4125.43 3689.58 4119.44 3682.09C4114.71 3676.18 4110.02 3670.32 4105.43 3664.39C4095.31 3651.32 4086.14 3638.5 4080.44 3626.65L4080.42 3626.61L4080.4 3626.56C4065.86 3595.05 4051.85 3567.01 4036.45 3546.11C4021.02 3525.17 4004.9 3512.32 3986.43 3509.53C3968.03 3506.77 3955.86 3514.09 3945.12 3525.58C3939.63 3531.46 3934.67 3538.28 3929.49 3545.41L3929.42 3545.52ZM3998.32 3829.19L3995.47 3834.57C3974.42 3823.35 3950.77 3818.18 3927.39 3814.88C3918.36 3813.61 3909.47 3812.63 3900.8 3811.67C3898.25 3811.39 3895.71 3811.11 3893.2 3810.82C3882.23 3809.58 3871.65 3808.25 3862.07 3806.25C3843.2 3802.32 3826.33 3795.47 3818.16 3779.52C3810.11 3763.81 3811.63 3741.4 3823.3 3709.44C3825.27 3703.36 3825.63 3696.2 3825.04 3688.04C3824.55 3681.17 3823.43 3674.01 3822.25 3666.51C3822.02 3665.04 3821.79 3663.55 3821.56 3662.05C3818.87 3644.52 3816.29 3624.62 3824.84 3608.57C3834.76 3589.36 3850.55 3581.99 3865.52 3576.58C3867.99 3575.69 3870.41 3574.85 3872.77 3574.04C3885.11 3569.77 3895.9 3566.05 3904.42 3557.53C3909.67 3551.97 3914.51 3545.34 3919.67 3538.24L3919.83 3538.02C3924.87 3531.08 3930.22 3523.71 3936.25 3517.25C3948.69 3503.94 3964.59 3493.93 3988.23 3497.48L3988.23 3497.48C4011.4 3500.98 4030.03 3516.88 4046.22 3538.87C4062.43 3560.87 4076.89 3589.92 4091.41 3621.4C4096.51 3631.99 4104.96 3643.92 4115.03 3656.92C4119.29 3662.42 4123.93 3668.23 4128.68 3674.17C4134.86 3681.89 4141.21 3689.84 4147.11 3697.6C4157.74 3711.57 4167.74 3726 4174.77 3740.27C4181.76 3754.47 4186.08 3769.07 4184.66 3783.27C4182.99 3803.72 4175.88 3820.39 4164.44 3833.01C4153.01 3845.6 4137.59 3853.78 4119.86 3857.82C4084.55 3865.87 4039.55 3857.67 3995.51 3834.58L3998.32 3829.19Z" fill="#1ABCFE"/>
<path d="M4638.95 3531.46C4625.59 3556.67 4569.82 3597.23 4532.5 3586.6C4494.8 3576.35 4477.51 3518.86 4484.98 3475.14C4492.05 3426.31 4532.5 3423.55 4583.57 3447.97C4638.55 3475.14 4655.05 3497.98 4638.95 3531.46Z" fill="white"/>
<path d="M4608.3 3807.52C4672.72 3729.15 4816.08 3745.3 4719.46 3637.79C4699.04 3614.55 4705.32 3564.93 4680.18 3543.67C4650.72 3517.68 4618.12 3538.94 4588.27 3525.55C4558.42 3510.98 4527 3483.02 4490.47 3502.71C4453.94 3522.8 4450.01 3574.78 4446.48 3643.3C4443.34 3692.53 4398.56 3774.84 4422.52 3820.12C4457.08 3890.23 4547.03 3880.77 4608.3 3807.52V3807.52Z" fill="white"/>
<path fill-rule="evenodd" clip-rule="evenodd" d="M4590.84 3520.03C4602.03 3525.02 4613.5 3524.57 4626.63 3524.06C4629.1 3523.96 4631.63 3523.86 4634.22 3523.79C4650.22 3523.39 4667.67 3524.54 4684.15 3539.05C4698.48 3551.21 4703.48 3571.04 4707.51 3588.62C4707.82 3589.97 4708.13 3591.31 4708.43 3592.63C4710.17 3600.32 4711.83 3607.63 4714.02 3614.39C4716.58 3622.27 4719.69 3628.82 4724 3633.74C4748.25 3660.72 4759 3681.51 4757.98 3699C4756.93 3717.08 4743.58 3729.04 4727.41 3738.81C4719.18 3743.77 4709.74 3748.45 4699.9 3753.21C4698.42 3753.93 4696.94 3754.65 4695.44 3755.37C4686.9 3759.49 4678.1 3763.74 4669.29 3768.44C4649.19 3779.15 4629.56 3791.93 4614.38 3809.74V3809.74L4612.96 3811.44C4581.54 3849.01 4542.33 3870.74 4505.88 3873.65C4469.11 3876.59 4435.57 3860.26 4417.11 3822.9C4410.44 3810.23 4408.74 3795.37 4409.65 3779.95C4410.56 3764.48 4414.14 3747.95 4418.47 3731.62C4420.95 3722.26 4423.78 3712.64 4426.53 3703.28C4428.51 3696.54 4430.45 3689.95 4432.19 3683.69C4436.44 3668.4 4439.67 3654.57 4440.42 3642.95C4442.17 3608.84 4444.05 3578.11 4450.21 3553.37C4456.4 3528.51 4467.17 3508.57 4487.55 3497.37L4487.57 3497.35L4487.6 3497.34C4507.94 3486.38 4526.9 3488.85 4544.1 3495.61C4552.6 3498.95 4560.78 3503.38 4568.52 3507.76C4570.18 3508.7 4571.81 3509.63 4573.42 3510.55C4579.43 3513.98 4585.15 3517.25 4590.84 3520.03ZM4493.37 3508.06C4477.24 3516.95 4467.79 3533.05 4462 3556.32C4456.18 3579.71 4454.33 3609.22 4452.55 3643.62L4452.55 3643.65L4452.55 3643.69C4451.72 3656.68 4448.17 3671.58 4443.9 3686.97C4442.04 3693.66 4440.07 3700.36 4438.08 3707.09C4435.4 3716.2 4432.7 3725.39 4430.21 3734.76C4425.95 3750.83 4422.62 3766.43 4421.78 3780.67C4420.94 3794.93 4422.62 3807.31 4427.89 3817.27L4427.93 3817.35L4427.97 3817.42C4444.09 3850.11 4472.78 3864.08 4504.91 3861.51C4537.32 3858.91 4573.64 3839.38 4603.45 3803.85L4603.62 3803.64C4620.47 3783.14 4642.33 3769.01 4663.58 3757.68C4672.63 3752.86 4681.68 3748.49 4690.2 3744.37C4691.69 3743.65 4693.16 3742.94 4694.62 3742.24C4704.48 3737.46 4713.45 3733 4721.14 3728.36C4736.78 3718.93 4745.18 3709.87 4745.85 3698.29C4746.55 3686.13 4739 3668.63 4714.95 3641.87L4714.93 3641.84L4714.9 3641.82C4709.01 3635.12 4705.26 3626.77 4702.46 3618.16C4700.09 3610.83 4698.29 3602.89 4696.55 3595.24C4696.26 3593.94 4695.96 3592.64 4695.67 3591.36C4691.46 3573.03 4687.04 3557.44 4676.27 3548.33L4676.22 3548.29L4676.17 3548.24C4663.2 3536.8 4649.65 3535.59 4634.53 3535.98C4632.32 3536.03 4630.05 3536.13 4627.73 3536.23C4614.6 3536.79 4599.84 3537.42 4585.79 3531.12L4585.7 3531.08L4585.61 3531.03C4579.51 3528.05 4573.31 3524.51 4567.22 3521.04C4565.66 3520.14 4564.1 3519.25 4562.55 3518.38C4554.87 3514.03 4547.31 3509.97 4539.66 3506.96C4524.56 3501.02 4509.56 3499.35 4493.37 3508.06Z" fill="#1ABCFE"/>
<path d="M4580.42 3702.77C4680.19 3555.09 4605.95 3556.27 4580.81 3544.85C4555.67 3533.03 4529.36 3509.8 4499.9 3525.94C4470.44 3542.49 4468.87 3585.02 4468.08 3640.94C4466.91 3681.11 4433.52 3748.45 4453.55 3785.86C4477.9 3829.58 4536.82 3766.17 4580.42 3702.77Z" fill="white"/>
<path d="M3977.9 3724.03C3828.65 3627.15 3898.56 3594.08 3920.95 3578.71C3948.05 3559.03 3948.45 3521.22 3981.83 3524.76C4015.22 3528.31 4034.86 3569.66 4057.24 3620.85C4073.74 3657.48 4131.09 3706.31 4126.77 3748.45C4121.27 3798.07 4042.32 3765.38 3977.9 3724.03Z" fill="white"/>
<path d="M4630.3 3530.28C4618.52 3550.76 4570.6 3583.05 4538.79 3574.38C4506.19 3566.11 4491.26 3520.04 4497.94 3485.38C4503.83 3446 4538.79 3444.03 4582.78 3463.73C4629.52 3484.99 4644.05 3503.1 4630.3 3530.28Z" fill="#1ABCFE"/>
<path d="M4598.09 3518.85C4590.63 3533.03 4559.21 3555.48 4537.21 3549.57C4515.22 3543.67 4504.22 3511.77 4507.75 3487.75C4510.9 3460.57 4534.46 3458.99 4564.31 3472.39C4596.52 3487.36 4606.73 3499.96 4598.09 3518.85Z" fill="white"/>
<path d="M4191.96 3004.93C4207.67 2990.36 4245.77 2945.86 4318.04 2992.32C4331.4 3000.99 4342.39 3001.78 4367.92 3012.8C4419.38 3034.07 4395.03 3085.27 4340.04 3102.59C4316.47 3110.08 4295.26 3138.83 4252.84 3136.07C4216.31 3134.1 4206.89 3110.08 4184.5 3097.08C4144.83 3074.64 4138.94 3044.31 4160.54 3028.16C4182.14 3012.02 4190.39 3006.11 4191.96 3004.93Z" fill="white" stroke="#1ABCFE" stroke-width="10"/>
<path fill-rule="evenodd" clip-rule="evenodd" d="M4197.81 3004.41C4196.61 3005.57 4195.48 3006.64 4194.44 3007.61L4194.3 3007.74L4194.15 3007.85C4193.82 3008.1 4193.13 3008.6 4192.02 3009.41C4188.19 3012.21 4179.33 3018.68 4162.72 3031.09C4153.1 3038.29 4149.77 3048.34 4153.03 3059.2C4156.39 3070.37 4166.91 3082.93 4186.29 3093.9L4186.31 3093.91L4186.33 3093.92C4192.24 3097.35 4197.25 3101.48 4201.91 3105.65C4203.43 3107 4204.89 3108.34 4206.33 3109.66C4209.41 3112.48 4212.41 3115.23 4215.66 3117.87C4224.94 3125.39 4235.72 3131.48 4253.04 3132.42L4253.06 3132.42L4253.08 3132.42C4273.32 3133.74 4288.51 3127.57 4301.7 3120C4306.09 3117.48 4310.15 3114.87 4314.15 3112.31C4316.27 3110.94 4318.38 3109.59 4320.52 3108.26C4326.53 3104.52 4332.6 3101.12 4338.94 3099.11L4338.95 3099.11C4365.77 3090.65 4384.47 3074.12 4390.48 3057.9C4393.45 3049.89 4393.32 3042.04 4389.76 3035.03C4386.17 3027.96 4378.86 3021.27 4366.54 3016.18L4366.51 3016.17L4366.49 3016.16C4355.76 3011.53 4347.66 3008.74 4340.77 3006.36C4339.55 3005.94 4338.37 3005.53 4337.22 3005.13C4329.55 3002.45 4323.12 2999.97 4316.07 2995.4C4280.72 2972.67 4254.29 2972.48 4234.99 2979.19C4217.89 2985.14 4205.96 2996.59 4197.81 3004.41ZM4232.6 2972.28C4254.34 2964.72 4283.09 2965.51 4320.01 2989.25L4320.03 2989.26C4326.33 2993.34 4332.08 2995.59 4339.62 2998.23C4340.74 2998.62 4341.91 2999.02 4343.11 2999.44C4350.01 3001.81 4358.36 3004.69 4369.34 3009.43C4382.74 3014.98 4391.66 3022.66 4396.26 3031.71C4400.89 3040.82 4400.88 3050.84 4397.32 3060.45C4390.27 3079.48 4369.3 3097.21 4341.14 3106.08C4335.7 3107.81 4330.27 3110.8 4324.36 3114.48C4322.41 3115.68 4320.39 3116.98 4318.31 3118.32C4314.2 3120.95 4309.85 3123.74 4305.32 3126.34C4291.42 3134.32 4274.8 3141.15 4252.63 3139.72C4233.43 3138.68 4221.24 3131.78 4211.08 3123.55C4207.65 3120.77 4204.38 3117.78 4201.21 3114.88C4199.81 3113.59 4198.43 3112.33 4197.06 3111.11C4192.53 3107.06 4187.96 3103.32 4182.69 3100.26C4162.42 3088.78 4150.16 3074.96 4146.05 3061.32C4141.86 3047.37 4146.38 3034.19 4158.36 3025.23L4158.36 3025.23C4175.03 3012.77 4183.61 3006.51 4187.47 3003.7C4188.51 3002.94 4189.21 3002.43 4189.63 3002.11C4190.55 3001.26 4191.55 3000.29 4192.66 2999.23C4200.74 2991.44 4213.87 2978.8 4232.6 2972.28Z" fill="#1ABCFE"/>
<path fill-rule="evenodd" clip-rule="evenodd" d="M4346.98 3052.15C4355.12 3047.62 4362.55 3044.17 4368.58 3043.85L4368.85 3048.71C4364.08 3048.97 4357.57 3051.83 4349.34 3056.41C4344.84 3058.92 4340.05 3061.8 4334.93 3064.89C4330.7 3067.44 4326.24 3070.13 4321.52 3072.85C4300.97 3084.73 4276.52 3096.76 4251.27 3096.76C4225.94 3096.76 4205.78 3084.97 4191.15 3073.4C4184.72 3068.31 4179.31 3063.23 4175.01 3059.18C4174.41 3058.62 4173.84 3058.08 4173.28 3057.56C4170.98 3055.41 4169.11 3053.7 4167.6 3052.53C4166.84 3051.95 4166.25 3051.56 4165.79 3051.31C4165.39 3051.11 4165.23 3051.08 4165.23 3051.08C4165.23 3051.08 4165.24 3051.08 4165.26 3051.08V3046.2C4166.3 3046.2 4167.26 3046.59 4168.04 3047C4168.86 3047.42 4169.71 3048.01 4170.57 3048.68C4172.29 3050 4174.32 3051.87 4176.6 3054C4177.16 3054.52 4177.74 3055.07 4178.34 3055.63C4182.65 3059.68 4187.91 3064.62 4194.16 3069.57C4208.4 3080.83 4227.51 3091.89 4251.27 3091.89C4275.12 3091.89 4298.59 3080.48 4319.09 3068.63C4323.61 3066.02 4328.04 3063.35 4332.29 3060.79C4337.52 3057.64 4342.48 3054.66 4346.98 3052.15Z" fill="#1ABCFE"/>
<path fill-rule="evenodd" clip-rule="evenodd" d="M4373.17 3038.71L4373.97 3053.31L4369.11 3053.58C4365.61 3053.77 4360.02 3056.04 4351.7 3060.68C4347.28 3063.13 4342.57 3065.97 4337.43 3069.07L4337.42 3069.08C4333.2 3071.62 4328.71 3074.33 4323.95 3077.08C4303.35 3088.98 4277.92 3101.64 4251.27 3101.64C4224.38 3101.64 4203.16 3089.11 4188.14 3077.22C4181.55 3072.01 4176.01 3066.81 4171.72 3062.77L4171.68 3062.74C4171.09 3062.17 4170.52 3061.64 4169.97 3061.13C4167.65 3058.95 4165.93 3057.4 4164.63 3056.39C4164.1 3055.98 4163.77 3055.77 4163.61 3055.68C4163.56 3055.66 4163.51 3055.64 4163.46 3055.62L4163.45 3055.62C4163.37 3055.58 4163.02 3055.45 4162.62 3055.2C4162.44 3055.08 4161.97 3054.77 4161.51 3054.22C4161.09 3053.72 4160.17 3052.4 4160.4 3050.51V3041.33H4165.26C4167.44 3041.33 4169.23 3042.12 4170.3 3042.68C4171.47 3043.29 4172.57 3044.07 4173.54 3044.82C4175.46 3046.31 4177.66 3048.32 4179.92 3050.44C4180.48 3050.96 4181.07 3051.51 4181.66 3052.08L4181.67 3052.08C4185.98 3056.13 4191.1 3060.94 4197.17 3065.74C4211.01 3076.7 4229.07 3087.01 4251.27 3087.01C4273.72 3087.01 4296.21 3076.23 4316.66 3064.41C4321.14 3061.82 4325.53 3059.18 4329.79 3056.62L4329.83 3056.59C4335.03 3053.46 4340.04 3050.44 4344.62 3047.89C4352.67 3043.41 4361.02 3039.38 4368.32 3038.98L4373.17 3038.71Z" fill="#1ABCFE"/>
<path d="M4216.31 3000.99C4224.17 2993.9 4248.92 2974.61 4281.52 2994.29C4288.59 2998.24 4295.66 3002.57 4305.87 3008.47C4326.68 3020.68 4316.47 3038.41 4291.33 3049.43C4279.94 3054.15 4261.09 3064.4 4246.95 3063.61C4231.24 3062.03 4220.63 3051.79 4210.42 3045.1C4191.18 3032.5 4192.36 3021.86 4201.39 3013.59C4208.06 3007.29 4215.53 3001.38 4216.32 3000.99H4216.31Z" fill="white"/>
<defs>
<filter id="filter0_dddd" x="0" y="0" width="6929" height="6932" filterUnits="userSpaceOnUse" color-interpolation-filters="sRGB">
<feFlood flood-opacity="0" result="BackgroundImageFix"/>
<feColorMatrix in="SourceAlpha" type="matrix" values="0 0 0 0 0 0 0 0 0 0 0 0 0 0 0 0 0 0 127 0"/>
<feOffset dy="10"/>
<feGaussianBlur stdDeviation="4"/>
<feColorMatrix type="matrix" values="0 0 0 0 0 0 0 0 0 0 0 0 0 0 0 0 0 0 0.1 0"/>
<feBlend mode="normal" in2="BackgroundImageFix" result="effect1_dropShadow"/>
<feColorMatrix in="SourceAlpha" type="matrix" values="0 0 0 0 0 0 0 0 0 0 0 0 0 0 0 0 0 0 127 0"/>
<feOffset dy="4"/>
<feGaussianBlur stdDeviation="2"/>
<feColorMatrix type="matrix" values="0 0 0 0 0 0 0 0 0 0 0 0 0 0 0 0 0 0 0.05 0"/>
<feBlend mode="normal" in2="effect1_dropShadow" result="effect2_dropShadow"/>
<feColorMatrix in="SourceAlpha" type="matrix" values="0 0 0 0 0 0 0 0 0 0 0 0 0 0 0 0 0 0 127 0"/>
<feOffset dy="1"/>
<feGaussianBlur stdDeviation="1"/>
<feColorMatrix type="matrix" values="0 0 0 0 0 0 0 0 0 0 0 0 0 0 0 0 0 0 0.1 0"/>
<feBlend mode="normal" in2="effect2_dropShadow" result="effect3_dropShadow"/>
<feColorMatrix in="SourceAlpha" type="matrix" values="0 0 0 0 0 0 0 0 0 0 0 0 0 0 0 0 0 0 127 0"/>
<feOffset dy="4"/>
<feGaussianBlur stdDeviation="2"/>
<feColorMatrix type="matrix" values="0 0 0 0 0 0 0 0 0 0 0 0 0 0 0 0 0 0 0.05 0"/>
<feBlend mode="normal" in2="effect3_dropShadow" result="effect4_dropShadow"/>
<feBlend mode="normal" in="SourceGraphic" in2="effect4_dropShadow" result="shape"/>
</filter>
<linearGradient id="paint0_linear" x1="3464.5" y1="1.00002" x2="3473.62" y2="6558.32" gradientUnits="userSpaceOnUse">
<stop offset="0.655058" stop-color="#33354A"/>
<stop offset="1" stop-color="#212337"/>
</linearGradient>
</defs>
</svg>
