<svg width="256" height="256" viewBox="0 0 256 256" fill="none" xmlns="http://www.w3.org/2000/svg">
<g clip-path="url(#clip0_883_571)">
<g clip-path="url(#clip1_883_571)">
<rect x="28" y="28" width="200" height="200" rx="20" fill="url(#paint0_linear_883_571)"/>
<g clip-path="url(#clip2_883_571)">
<rect x="28" y="28" width="200" height="180" rx="20" fill="url(#paint1_linear_883_571)"/>
<rect x="-73" y="-61" width="208" height="196" rx="85" fill="#D9D9D9" stroke="#00BD58" stroke-width="10"/>
<rect x="-21" y="-25" width="156" height="160" stroke="#00BD58" stroke-width="10"/>
<path d="M123 123H145V145H123V123Z" fill="white" stroke="#00BD58" stroke-width="10"/>
</g>
</g>
<g filter="url(#filter0_d_883_571)">
<path d="M167.803 227.507L131.466 136.666C130.16 133.401 133.401 130.16 136.666 131.466L227.507 167.803C231.201 169.28 230.707 174.659 226.806 175.439L186.615 183.477C185.031 183.794 183.794 185.031 183.477 186.615L175.439 226.806C174.659 230.707 169.28 231.201 167.803 227.507Z" fill="black"/>
<path d="M178.574 185.634L171.196 222.526L136.975 136.975L222.526 171.196L185.634 178.574C182.071 179.287 179.287 182.072 178.574 185.634Z" stroke="white" stroke-width="10"/>
</g>
</g>
<defs>
<filter id="filter0_d_883_571" x="121.17" y="131.17" width="118.852" height="128.852" filterUnits="userSpaceOnUse" color-interpolation-filters="sRGB">
<feFlood flood-opacity="0" result="BackgroundImageFix"/>
<feColorMatrix in="SourceAlpha" type="matrix" values="0 0 0 0 0 0 0 0 0 0 0 0 0 0 0 0 0 0 127 0" result="hardAlpha"/>
<feOffset dy="20"/>
<feGaussianBlur stdDeviation="5"/>
<feComposite in2="hardAlpha" operator="out"/>
<feColorMatrix type="matrix" values="0 0 0 0 0 0 0 0 0 0 0 0 0 0 0 0 0 0 0.25 0"/>
<feBlend mode="normal" in2="BackgroundImageFix" result="effect1_dropShadow_883_571"/>
<feBlend mode="normal" in="SourceGraphic" in2="effect1_dropShadow_883_571" result="shape"/>
</filter>
<linearGradient id="paint0_linear_883_571" x1="28" y1="228" x2="228" y2="228" gradientUnits="userSpaceOnUse">
<stop stop-color="#724B93"/>
<stop offset="0.0384006" stop-color="#7D5AAA"/>
<stop offset="0.07751" stop-color="#5D4689"/>
<stop offset="0.923489" stop-color="#1B3C63"/>
<stop offset="0.961496" stop-color="#2E6FBD"/>
<stop offset="1" stop-color="#1B4374"/>
</linearGradient>
<linearGradient id="paint1_linear_883_571" x1="228" y1="161.847" x2="31.9497" y2="66.0687" gradientUnits="userSpaceOnUse">
<stop stop-color="#3584E4"/>
<stop offset="1" stop-color="#C061CB"/>
</linearGradient>
<clipPath id="clip0_883_571">
<rect width="256" height="256" fill="white"/>
</clipPath>
<clipPath id="clip1_883_571">
<rect x="28" y="28" width="200" height="200" rx="20" fill="white"/>
</clipPath>
<clipPath id="clip2_883_571">
<rect x="28" y="28" width="200" height="180" rx="20" fill="white"/>
</clipPath>
</defs>
</svg>
